<svg width="181" height="181" viewBox="0 0 181 181" fill="none" xmlns="http://www.w3.org/2000/svg">
<path d="M41 41.636H141V139.553H41V41.636Z" fill="url(#paint0_linear_301_8873)"/>
<path d="M77.4796 91.4837H86.3434L81.9116 74.2959L77.4796 91.4837ZM48.5656 49.303V131.934H133.561V49.303H48.5656ZM91.208 110.329L87.9649 99.1589H75.966L72.7229 110.329H64.5074L76.074 70.8368V66.5129H87.1002L100.288 110.329H91.208ZM113.044 110.329H104.18V76.9987H113.044V110.329ZM108.666 72.999C106.129 72.999 104.071 70.9662 104.071 68.4589C104.071 65.9514 106.128 63.9186 108.666 63.9186C111.204 63.9186 113.26 65.9514 113.26 68.4589C113.26 70.9662 111.204 72.999 108.666 72.999Z" fill="url(#paint1_linear_301_8873)"/>
<defs>
<linearGradient id="paint0_linear_301_8873" x1="140.479" y1="41.115" x2="42.476" y2="139.118" gradientUnits="userSpaceOnUse">
<stop stop-color="#FFAA2A"/>
<stop offset="1" stop-color="#FFC06C"/>
</linearGradient>
<linearGradient id="paint1_linear_301_8873" x1="91.0634" y1="49.1642" x2="91.0634" y2="131.517" gradientUnits="userSpaceOnUse">
<stop stop-color="#251200"/>
<stop offset="1"/>
</linearGradient>
</defs>
</svg>
