<svg width="181" height="181" viewBox="0 0 181 181" fill="none" xmlns="http://www.w3.org/2000/svg">
<path d="M135.547 128.081C135.584 134.946 130.047 140.537 123.185 140.574C122.675 140.578 122.161 140.549 121.655 140.487C115.287 139.545 110.622 134.004 110.778 127.57V53.5977C110.626 47.1557 115.303 41.6145 121.676 40.6807C128.492 39.8826 134.667 44.7615 135.465 51.5779C135.522 52.0798 135.551 52.5817 135.547 53.0876V128.081Z" fill="#F9AB00"/>
<path d="M57.6006 115.821C64.4417 115.821 69.987 121.367 69.987 128.208C69.987 135.049 64.4417 140.594 57.6006 140.594C50.7595 140.594 45.2142 135.049 45.2142 128.208C45.2142 121.367 50.7595 115.821 57.6006 115.821ZM90.1894 78.2839C83.3154 78.6624 77.984 84.4257 78.1444 91.3079V124.575C78.1444 133.605 82.1183 139.084 87.9392 140.253C94.6568 141.614 101.202 137.274 102.563 130.557C102.732 129.734 102.814 128.899 102.81 128.06V90.732C102.823 83.8662 97.269 78.2921 90.4033 78.2798C90.3333 78.2798 90.2593 78.2798 90.1894 78.2839Z" fill="#E37400"/>
</svg>
