<svg width="181" height="181" viewBox="0 0 181 181" fill="none" xmlns="http://www.w3.org/2000/svg">
<path d="M70.1186 86.5158C69.6598 85.9167 68.9823 85.5238 68.2344 85.4231C67.4866 85.3223 66.7293 85.5219 66.1282 85.9782C65.7746 86.2571 65.4894 86.613 65.2943 87.0189L40.7937 136.034C40.4467 136.729 40.3897 137.533 40.6352 138.269C40.8808 139.006 41.4088 139.615 42.1032 139.962C42.509 140.168 42.9578 140.274 43.4126 140.273H77.5481C78.0948 140.287 78.6338 140.141 79.0989 139.853C79.5641 139.565 79.9353 139.148 80.167 138.653C87.5344 123.436 83.0685 100.3 70.1186 86.5158Z" fill="url(#paint0_linear_301_8925)"/>
<path d="M88.1272 41.9114C82.0194 51.3102 78.4598 62.1354 77.7977 73.3248C77.1356 84.5143 79.3937 95.6836 84.3504 105.737L100.808 138.653C101.051 139.139 101.425 139.548 101.888 139.835C102.35 140.121 102.883 140.272 103.427 140.272H137.556C137.941 140.273 138.322 140.198 138.678 140.051C139.034 139.904 139.357 139.689 139.629 139.417C139.901 139.144 140.117 138.821 140.264 138.465C140.411 138.11 140.486 137.728 140.485 137.343C140.485 136.889 140.381 136.441 140.182 136.034L93.11 41.8976C92.8866 41.4259 92.5338 41.0273 92.0928 40.7482C91.6517 40.4691 91.1405 40.3209 90.6186 40.3209C90.0966 40.3209 89.5854 40.4691 89.1444 40.7482C88.7033 41.0273 88.3506 41.4259 88.1272 41.8976V41.9114Z" fill="#2684FF"/>
<defs>
<linearGradient id="paint0_linear_301_8925" x1="83.6061" y1="94.0073" x2="57.7339" y2="138.818" gradientUnits="userSpaceOnUse">
<stop stop-color="#0052CC"/>
<stop offset="0.92" stop-color="#2684FF"/>
</linearGradient>
</defs>
</svg>
