<svg width="181" height="181" viewBox="0 0 181 181" fill="none" xmlns="http://www.w3.org/2000/svg">
<path d="M68.5616 82.0064C68.5616 83.237 68.6947 84.2347 68.9275 84.9664C69.1935 85.6981 69.5261 86.4963 69.9918 87.3611C70.1581 87.6272 70.2246 87.8932 70.2246 88.126C70.2246 88.4586 70.025 88.7912 69.5926 89.1238L67.4973 90.5207C67.198 90.7202 66.8987 90.82 66.6326 90.82C66.3 90.82 65.9674 90.6537 65.6348 90.3544C65.1692 89.8555 64.7701 89.3234 64.4375 88.7912C64.1049 88.2258 63.7723 87.5939 63.4065 86.8289C60.8123 89.8888 57.5529 91.4187 53.6283 91.4187C50.8346 91.4187 48.6062 90.6205 46.9765 89.024C45.3469 87.4276 44.5154 85.299 44.5154 82.6383C44.5154 79.8113 45.5132 77.5164 47.5419 75.787C49.5707 74.0575 52.2647 73.1928 55.6904 73.1928C56.8212 73.1928 57.9853 73.2925 59.2158 73.4588C60.4464 73.6251 61.7103 73.8912 63.0406 74.1905V71.7626C63.0406 69.2349 62.5085 67.4722 61.4775 66.4412C60.4132 65.4102 58.6172 64.9113 56.0562 64.9113C54.8922 64.9113 53.6949 65.0443 52.4643 65.3436C51.2337 65.643 50.0364 66.0088 48.8723 66.4744C48.3402 66.7073 47.9411 66.8403 47.7082 66.9068C47.4754 66.9733 47.3091 67.0066 47.1761 67.0066C46.7105 67.0066 46.4777 66.674 46.4777 65.9756V64.3459C46.4777 63.8137 46.5442 63.4146 46.7105 63.1818C46.8768 62.949 47.1761 62.7162 47.6417 62.4834C48.8058 61.8847 50.2027 61.3858 51.8324 60.9867C53.462 60.5543 55.1915 60.3548 57.0208 60.3548C60.9786 60.3548 63.8721 61.2528 65.7346 63.0488C67.5639 64.8447 68.4951 67.572 68.4951 71.2305V82.0064H68.5616ZM55.0585 87.0618C56.156 87.0618 57.2868 86.8622 58.4841 86.4631C59.6815 86.064 60.7458 85.3323 61.6438 84.3345C62.1759 83.7026 62.575 83.0042 62.7746 82.2059C62.9741 81.4077 63.1071 80.4432 63.1071 79.3124V77.9155C62.1426 77.6827 61.1116 77.4832 60.0473 77.3501C58.983 77.2171 57.952 77.1506 56.921 77.1506C54.6926 77.1506 53.0629 77.5829 51.9654 78.4809C50.8678 79.3789 50.3357 80.6428 50.3357 82.3057C50.3357 83.8689 50.7348 85.033 51.5663 85.8312C52.3645 86.6626 53.5286 87.0618 55.0585 87.0618ZM81.7654 90.6537C81.1668 90.6537 80.7677 90.5539 80.5016 90.3211C80.2355 90.1216 80.0027 89.656 79.8032 89.024L71.9873 63.3148C71.7877 62.6497 71.688 62.2173 71.688 61.9845C71.688 61.4523 71.954 61.153 72.4862 61.153H75.7456C76.3775 61.153 76.8098 61.2528 77.0427 61.4856C77.3087 61.6851 77.5083 62.1508 77.7078 62.7827L83.2953 84.8001L88.4837 62.7827C88.65 62.1175 88.8496 61.6851 89.1157 61.4856C89.3817 61.286 89.8474 61.153 90.446 61.153H93.1067C93.7387 61.153 94.171 61.2528 94.4371 61.4856C94.7032 61.6851 94.936 62.1508 95.069 62.7827L100.324 85.0662L106.078 62.7827C106.277 62.1175 106.51 61.6851 106.743 61.4856C107.009 61.286 107.441 61.153 108.04 61.153H111.133C111.665 61.153 111.965 61.4191 111.965 61.9845C111.965 62.1508 111.931 62.3171 111.898 62.5166C111.865 62.7162 111.798 62.9822 111.665 63.3481L103.65 89.0573C103.45 89.7225 103.217 90.1548 102.951 90.3544C102.685 90.5539 102.253 90.687 101.688 90.687H98.8273C98.1954 90.687 97.763 90.5872 97.4969 90.3544C97.2309 90.1216 96.998 89.6892 96.865 89.024L91.7099 67.572L86.588 88.9908C86.4217 89.656 86.2221 90.0883 85.9561 90.3211C85.69 90.5539 85.2244 90.6537 84.6257 90.6537H81.7654ZM124.503 91.5517C122.774 91.5517 121.044 91.3522 119.381 90.9531C117.718 90.5539 116.421 90.1216 115.557 89.6227C115.024 89.3234 114.659 88.9908 114.526 88.6914C114.392 88.3921 114.326 88.0595 114.326 87.7602V86.064C114.326 85.3655 114.592 85.033 115.091 85.033C115.29 85.033 115.49 85.0662 115.69 85.1327C115.889 85.1992 116.188 85.3323 116.521 85.4653C117.652 85.9642 118.882 86.3633 120.18 86.6294C121.51 86.8955 122.807 87.0285 124.137 87.0285C126.233 87.0285 127.862 86.6626 128.993 85.9309C130.124 85.1992 130.723 84.135 130.723 82.7713C130.723 81.8401 130.423 81.0751 129.825 80.4432C129.226 79.8113 128.095 79.2459 126.465 78.7137L121.643 77.2171C119.215 76.4521 117.419 75.3213 116.322 73.8247C115.224 72.3613 114.659 70.7316 114.659 69.0021C114.659 67.6052 114.958 66.3747 115.557 65.3104C116.155 64.2461 116.953 63.3148 117.951 62.5831C118.949 61.8182 120.08 61.2528 121.41 60.8537C122.74 60.4546 124.137 60.2883 125.601 60.2883C126.332 60.2883 127.097 60.3215 127.829 60.4213C128.594 60.5211 129.293 60.6541 129.991 60.7872C130.656 60.9534 131.288 61.1197 131.887 61.3193C132.485 61.5189 132.951 61.7184 133.284 61.918C133.749 62.184 134.082 62.4501 134.281 62.7494C134.481 63.0155 134.581 63.3814 134.581 63.847V65.4102C134.581 66.1086 134.315 66.4744 133.816 66.4744C133.55 66.4744 133.117 66.3414 132.552 66.0753C130.656 65.2106 128.528 64.7782 126.166 64.7782C124.27 64.7782 122.774 65.0776 121.743 65.7095C120.712 66.3414 120.18 67.3059 120.18 68.6695C120.18 69.6008 120.512 70.399 121.177 71.0309C121.842 71.6628 123.073 72.2948 124.836 72.8602L129.559 74.3568C131.953 75.1218 133.683 76.1861 134.714 77.5497C135.745 78.9133 136.244 80.4765 136.244 82.2059C136.244 83.6361 135.944 84.9332 135.379 86.064C134.78 87.1948 133.982 88.1926 132.951 88.9908C131.92 89.8222 130.689 90.4209 129.259 90.8533C127.763 91.3189 126.199 91.5517 124.503 91.5517Z" fill="white"/>
<path fill-rule="evenodd" clip-rule="evenodd" d="M130.789 107.716C119.847 115.797 103.949 120.088 90.2797 120.088C71.1225 120.088 53.8611 113.004 40.8236 101.23C39.7926 100.299 40.7239 99.0349 41.9544 99.7666C56.0562 107.948 73.4506 112.904 91.4437 112.904C103.583 112.904 116.92 110.376 129.193 105.188C131.022 104.356 132.585 106.385 130.789 107.716Z" fill="#FF9900"/>
<path fill-rule="evenodd" clip-rule="evenodd" d="M135.346 102.527C133.949 100.731 126.1 101.662 122.541 102.095C121.477 102.228 121.31 101.297 122.275 100.598C128.528 96.2079 138.804 97.4717 140.002 98.9351C141.199 100.432 139.669 110.709 133.816 115.631C132.918 116.396 132.053 115.997 132.452 114.999C133.782 111.707 136.742 104.29 135.346 102.527Z" fill="#FF9900"/>
</svg>
