<svg width="181" height="182" viewBox="0 0 181 182" fill="none" xmlns="http://www.w3.org/2000/svg">
<path d="M73.9949 43.6429H103.586L72.8673 134.711C72.7102 135.176 72.4816 135.614 72.1897 136.009C71.8985 136.404 71.5472 136.75 71.1484 137.036C70.7496 137.323 70.3096 137.545 69.8421 137.695C69.3745 137.845 68.887 137.923 68.397 137.923H45.368C44.6204 137.923 43.8829 137.745 43.2178 137.403C42.5521 137.061 41.9774 136.566 41.5415 135.958C41.1052 135.349 40.8199 134.646 40.7089 133.906C40.5976 133.166 40.6651 132.41 40.9039 131.701L69.5233 46.8518C69.6796 46.3868 69.9083 45.9493 70.2009 45.5543C70.4921 45.1592 70.8446 44.813 71.2422 44.5267C71.6409 44.2404 72.081 44.0179 72.5485 43.8679C73.016 43.7179 73.5036 43.6404 73.9936 43.6404V43.6416L73.9949 43.6429Z" fill="url(#paint0_linear_301_8849)"/>
<path d="M128.543 137.923H101.973C101.677 137.923 101.38 137.895 101.088 137.839C100.797 137.784 100.51 137.702 100.234 137.593C99.9577 137.484 99.6927 137.349 99.4415 137.191C99.1905 137.033 98.9549 136.851 98.7377 136.649L68.5857 108.49C68.2668 108.192 68.0447 107.805 67.9482 107.38C67.8517 106.954 67.8857 106.509 68.0455 106.103C68.2054 105.697 68.4838 105.349 68.8445 105.103C69.2057 104.858 69.632 104.727 70.0683 104.727H116.991L128.541 137.924L128.543 137.923Z" fill="#0078D4"/>
<path d="M103.692 43.6429L82.9779 104.733L116.823 104.726L128.432 137.923H101.962C101.688 137.92 101.414 137.895 101.144 137.847C100.874 137.798 100.609 137.727 100.352 137.632C99.8352 137.443 99.3549 137.168 98.9315 136.818L78.5776 117.822L72.8798 134.625C72.7322 135.045 72.5297 135.444 72.2772 135.81C71.7711 136.547 71.0788 137.137 70.2708 137.519C69.8686 137.709 69.4427 137.845 69.0045 137.923H45.3817C44.6267 137.925 43.8816 137.745 43.2103 137.398C42.5389 137.051 41.961 136.547 41.5254 135.929C41.0898 135.311 40.8093 134.598 40.7076 133.849C40.6064 133.1 40.6865 132.337 40.9414 131.625L69.5145 46.9156C69.6633 46.4418 69.8871 45.9955 70.1771 45.593C70.4658 45.1905 70.8184 44.8355 71.2184 44.5429C71.6184 44.2504 72.0634 44.0229 72.5347 43.8704C73.006 43.7179 73.4998 43.6404 73.9961 43.6429H103.693H103.692Z" fill="url(#paint1_linear_301_8849)"/>
<path d="M140.409 131.701C140.648 132.41 140.715 133.166 140.605 133.906C140.494 134.646 140.209 135.349 139.774 135.958C139.338 136.566 138.764 137.061 138.098 137.402C137.433 137.744 136.696 137.923 135.948 137.923H102.968C103.715 137.923 104.453 137.744 105.119 137.403C105.784 137.062 106.359 136.565 106.796 135.958C107.232 135.35 107.517 134.646 107.628 133.906C107.739 133.166 107.672 132.41 107.433 131.701L78.8126 46.8493C78.4975 45.9146 77.8972 45.1023 77.0962 44.5267C76.6987 44.2404 76.2586 44.0192 75.7924 43.8691C75.3261 43.7191 74.8385 43.6429 74.3498 43.6429H107.328C107.818 43.6429 108.305 43.7191 108.772 43.8691C109.238 44.0192 109.678 44.2417 110.077 44.5267C110.475 44.813 110.826 45.1592 111.117 45.553C111.408 45.9468 111.636 46.3843 111.794 46.8493L140.414 131.701H140.409Z" fill="url(#paint2_linear_301_8849)"/>
<defs>
<linearGradient id="paint0_linear_301_8849" x1="84.7943" y1="50.6308" x2="54.0424" y2="141.474" gradientUnits="userSpaceOnUse">
<stop stop-color="#114A8B"/>
<stop offset="1" stop-color="#0669BC"/>
</linearGradient>
<linearGradient id="paint1_linear_301_8849" x1="94.3824" y1="92.9586" x2="87.2694" y2="95.3713" gradientUnits="userSpaceOnUse">
<stop stop-opacity="0.3"/>
<stop offset="0.1" stop-opacity="0.2"/>
<stop offset="0.3" stop-opacity="0.1"/>
<stop offset="0.6" stop-opacity="0.1"/>
<stop offset="1" stop-opacity="0"/>
</linearGradient>
<linearGradient id="paint2_linear_301_8849" x1="90.4571" y1="47.9807" x2="124.209" y2="137.899" gradientUnits="userSpaceOnUse">
<stop stop-color="#3CCBF4"/>
<stop offset="1" stop-color="#2892DF"/>
</linearGradient>
</defs>
</svg>
