<svg width="182" height="181" viewBox="0 0 182 181" fill="none" xmlns="http://www.w3.org/2000/svg">
<path d="M44.3498 45.2276C43.8822 45.2215 43.4189 45.3179 42.9925 45.51C42.5661 45.7021 42.1869 45.9852 41.8815 46.3395C41.5762 46.6937 41.3521 47.1105 41.225 47.5606C41.098 48.0107 41.071 48.4831 41.1459 48.9447L54.747 131.512C54.9165 132.522 55.4365 133.441 56.2158 134.106C56.9951 134.771 57.9839 135.14 59.0084 135.149H124.258C125.026 135.158 125.772 134.892 126.36 134.398C126.948 133.904 127.339 133.215 127.462 132.457L141.063 48.9607C141.138 48.4991 141.111 48.0268 140.984 47.5767C140.857 47.1267 140.632 46.71 140.327 46.3558C140.022 46.0017 139.643 45.7187 139.216 45.5266C138.79 45.3346 138.326 45.2383 137.859 45.2444L44.3498 45.2276ZM101.622 104.902H80.7954L75.1564 75.4415H106.668L101.622 104.902Z" fill="#2684FF"/>
<path d="M136.655 75.4002H106.61L101.567 104.838H80.7579L56.1869 134.003C56.9657 134.676 57.9586 135.05 58.9881 135.059H124.202C124.969 135.069 125.715 134.803 126.302 134.309C126.89 133.816 127.281 133.127 127.403 132.37L136.655 75.4002Z" fill="url(#paint0_linear_301_8900)"/>
<defs>
<linearGradient id="paint0_linear_301_8900" x1="143.602" y1="83.6439" x2="108.895" y2="132.924" gradientUnits="userSpaceOnUse">
<stop offset="0.18" stop-color="#0052CC"/>
<stop offset="1" stop-color="#2684FF"/>
</linearGradient>
</defs>
</svg>
