<svg width="182" height="180" viewBox="0 0 182 180" fill="none" xmlns="http://www.w3.org/2000/svg">
<path d="M135.192 40L127.159 129.99L91.0505 140L55.0415 130.004L47.017 40H135.192Z" fill="#264DE4"/>
<path d="M120.282 124.259L127.147 47.3591H91.1045V132.348L120.282 124.259Z" fill="#2965F1"/>
<path d="M65.413 80.7402L66.4023 91.7787H91.1045V80.7402H65.413Z" fill="#EBEBEB"/>
<path d="M91.1045 58.3977H91.0663H63.425L64.4284 69.4364H91.1045V58.3977Z" fill="#EBEBEB"/>
<path d="M91.1045 120.893V109.408L91.0561 109.421L78.7624 106.102L77.9765 97.2979H72.0027H66.8955L68.442 114.63L91.0537 120.907L91.1045 120.893Z" fill="#EBEBEB"/>
<path d="M104.659 91.7785L103.378 106.095L91.0663 109.418V120.902L113.696 114.63L113.862 112.765L116.456 83.7042L116.725 80.7401L118.718 58.3977H91.0663V69.4364H106.621L105.616 80.7401H91.0663V91.7785H104.659Z" fill="white"/>
</svg>
