<svg width="181" height="181" viewBox="0 0 181 181" fill="none" xmlns="http://www.w3.org/2000/svg">
<path d="M139.566 81.6944C139.295 81.479 136.763 79.5673 131.424 79.5673C130.014 79.5735 128.607 79.6944 127.217 79.9289C126.183 72.8458 120.327 69.3924 120.065 69.2375L118.631 68.4106L117.688 69.7714C116.507 71.5993 115.645 73.6143 115.139 75.7307C114.183 79.774 114.764 83.5717 116.818 86.8184C114.338 88.2006 110.359 88.5408 109.554 88.5709H43.6825C41.962 88.5732 40.5658 89.9636 40.5564 91.684C40.4796 97.4547 41.4573 103.191 43.4414 108.61C45.7105 114.561 49.0864 118.945 53.4784 121.627C58.4001 124.641 66.3961 126.364 75.46 126.364C79.5546 126.377 83.6416 126.006 87.6673 125.257C93.2633 124.23 98.6481 122.274 103.599 119.47C107.678 117.107 111.35 114.102 114.471 110.57C119.69 104.662 122.799 98.0824 125.111 92.2352H126.033C131.747 92.2352 135.26 89.9487 137.198 88.0326C138.486 86.8106 139.491 85.3219 140.143 83.6708L140.552 82.4738L139.566 81.6944Z" fill="#2496ED"/>
<path d="M49.7883 86.6419H58.6153C59.0411 86.6419 59.3861 86.2968 59.3861 85.8712V78.0086C59.3884 77.5828 59.0453 77.2359 58.6197 77.2335C58.6183 77.2335 58.6167 77.2335 58.6153 77.2335H49.7883C49.3626 77.2335 49.0176 77.5786 49.0176 78.0042V78.0086V85.8711C49.0176 86.2968 49.3626 86.6419 49.7883 86.6419Z" fill="#2496ED"/>
<path d="M61.9524 86.6419H70.7795C71.2052 86.6419 71.5502 86.2968 71.5502 85.8712V78.0086C71.5526 77.5828 71.2094 77.2359 70.7837 77.2335C70.7823 77.2335 70.7808 77.2335 70.7794 77.2335H61.9523C61.5242 77.2335 61.1772 77.5805 61.1772 78.0086V85.8711C61.1798 86.2975 61.526 86.6419 61.9524 86.6419Z" fill="#2496ED"/>
<path d="M74.3016 86.6419H83.1287C83.5544 86.6419 83.8994 86.2968 83.8994 85.8712V78.0086C83.9018 77.5828 83.5586 77.2359 83.1329 77.2335C83.1315 77.2335 83.1299 77.2335 83.1285 77.2335H74.3015C73.8757 77.2335 73.5308 77.5786 73.5308 78.0042V78.0086V85.8711C73.5309 86.2968 73.876 86.6419 74.3016 86.6419Z" fill="#2496ED"/>
<path d="M86.5046 86.6419H95.3317C95.7581 86.6419 96.1043 86.2977 96.1067 85.8712V78.0086C96.1067 77.5805 95.7598 77.2335 95.3317 77.2335H86.5046C86.0789 77.2335 85.7339 77.5786 85.7339 78.0042V78.0086V85.8711C85.7339 86.2968 86.079 86.6419 86.5046 86.6419Z" fill="#2496ED"/>
<path d="M61.9524 75.3304H70.7795C71.2058 75.328 71.5502 74.9816 71.5502 74.5554V66.6928C71.5502 66.2671 71.2051 65.9221 70.7795 65.9221H61.9524C61.5261 65.9221 61.1797 66.2664 61.1774 66.6928V74.5554C61.1797 74.9825 61.5253 75.328 61.9524 75.3304Z" fill="#2496ED"/>
<path d="M74.3016 75.3304H83.1287C83.5549 75.328 83.8994 74.9816 83.8994 74.5554V66.6928C83.8994 66.2671 83.5542 65.9221 83.1287 65.9221H74.3016C73.8759 65.9221 73.5309 66.2672 73.5309 66.6928V74.5554C73.5309 74.9816 73.8753 75.328 74.3016 75.3304Z" fill="#2496ED"/>
<path d="M86.5046 75.3304H95.3317C95.7588 75.328 96.1043 74.9825 96.1067 74.5554V66.6928C96.1043 66.2664 95.7581 65.9221 95.3317 65.9221H86.5046C86.0789 65.9221 85.7339 66.2672 85.7339 66.6928V74.5554C85.7339 74.9816 86.0783 75.328 86.5046 75.3304Z" fill="#2496ED"/>
<path d="M86.5046 64.0146H95.3317C95.7581 64.0146 96.1043 63.6702 96.1067 63.2439V55.3769C96.1043 54.9505 95.7581 54.6062 95.3317 54.6062H86.5046C86.0789 54.6062 85.7339 54.9512 85.7339 55.3769V63.2438C85.7339 63.6695 86.079 64.0146 86.5046 64.0146Z" fill="#2496ED"/>
<path d="M98.8151 86.6419H107.642C108.069 86.6419 108.415 86.2977 108.417 85.8712V78.0086C108.417 77.5805 108.07 77.2335 107.642 77.2335H98.8151C98.3896 77.2335 98.0444 77.5786 98.0444 78.0042V78.0086V85.8711C98.0444 86.2968 98.3896 86.6419 98.8151 86.6419Z" fill="#2496ED"/>
</svg>
