<svg width="181" height="181" viewBox="0 0 181 181" fill="none" xmlns="http://www.w3.org/2000/svg">
<path d="M70.9399 77.5504L89.9126 66.5965C90.146 66.4617 90.4107 66.3907 90.6802 66.3907C90.9497 66.3907 91.2144 66.4617 91.4478 66.5965L110.42 77.5504C110.654 77.6852 110.848 77.8789 110.982 78.1123C111.117 78.3456 111.188 78.6103 111.188 78.8797V100.787C111.188 101.336 110.895 101.842 110.42 102.117L91.4478 113.071C91.2144 113.205 90.9497 113.276 90.6802 113.276C90.4107 113.276 90.146 113.205 89.9126 113.071L70.9399 102.117C70.7066 101.982 70.5129 101.788 70.3781 101.555C70.2434 101.322 70.1724 101.057 70.1724 100.787V78.8793C70.1728 78.3309 70.4653 77.8246 70.9399 77.55" fill="#8080F2"/>
<path d="M139.867 88.0383L117.174 48.5589C116.349 47.1316 114.827 46.0784 113.178 46.0784H67.7919C66.1434 46.0784 64.62 47.1316 63.7958 48.5589L41.1032 87.9512C40.2789 89.3789 40.2789 91.1809 41.1032 92.6086L63.7958 131.765C64.62 133.192 66.1434 133.922 67.7919 133.922H113.178C114.826 133.922 116.349 133.214 117.173 131.786L139.866 92.5664C140.691 91.1395 140.691 89.4656 139.866 88.0383H139.867ZM121.076 107.023C121.076 107.603 120.726 108.14 120.223 108.431L91.3173 125.107C91.0684 125.25 90.7866 125.325 90.4997 125.325C90.2129 125.325 89.931 125.25 89.6822 125.107L60.754 108.431C60.2512 108.14 59.8993 107.603 59.8993 107.022V73.6675C59.8993 73.0867 60.2462 72.5504 60.7493 72.2597L89.6536 55.5824C89.9024 55.4395 90.1842 55.3644 90.471 55.3644C90.7579 55.3644 91.0397 55.4395 91.2884 55.5824L120.218 72.2597C120.722 72.5504 121.076 73.0867 121.076 73.6675V107.022V107.023Z" fill="#4B32C3"/>
</svg>
