<svg width="182" height="181" viewBox="0 0 182 181" fill="none" xmlns="http://www.w3.org/2000/svg">
<path fill-rule="evenodd" clip-rule="evenodd" d="M99.5697 51.7465L120.104 63.6029C120.697 62.9756 121.378 62.4373 122.124 62.0045C126.383 59.5561 131.815 61.0098 134.289 65.2687C136.737 69.5277 135.283 74.9594 131.025 77.4331C130.283 77.86 129.485 78.178 128.653 78.3775V102.099C129.476 102.299 130.266 102.615 130.999 103.037C135.283 105.511 136.737 110.943 134.263 115.202C131.815 119.461 126.358 120.914 122.099 118.466C121.274 117.993 120.53 117.389 119.898 116.679L99.4878 128.463C99.7867 129.368 99.9385 130.315 99.9374 131.268C99.9374 136.164 95.9593 140.169 91.0372 140.169C86.1152 140.169 82.1371 136.19 82.1371 131.268C82.1371 130.393 82.2628 129.548 82.4971 128.75L61.9679 116.897C61.3816 117.512 60.7108 118.04 59.9758 118.466C55.6915 120.914 50.2594 119.461 47.811 115.202C45.363 110.943 46.8167 105.511 51.0753 103.037C51.8089 102.615 52.5989 102.299 53.4216 102.099V78.3775C52.5898 78.178 51.7911 77.86 51.0499 77.4331C46.791 74.9851 45.3373 69.5277 47.7857 65.2687C50.234 61.0098 55.6911 59.5561 59.9501 62.0045C60.6927 62.435 61.3697 62.9699 61.9603 63.5929L82.5009 51.7333C82.2588 50.9114 82.1363 50.059 82.1371 49.2023C82.1371 44.2809 86.1152 40.3021 91.0372 40.3021C95.9593 40.3021 99.9374 44.2805 99.9374 49.2023C99.9374 50.0869 99.8089 50.9406 99.5697 51.7465ZM97.4303 55.3996L118.014 67.2838C117.686 68.4295 117.592 69.6295 117.738 70.8123C117.883 71.9951 118.265 73.1366 118.86 74.1689C120.113 76.3485 122.154 77.7935 124.42 78.3567V102.108C124.304 102.136 124.189 102.167 124.075 102.199L97.1911 55.6374C97.2724 55.5596 97.3522 55.4805 97.4303 55.3999V55.3996ZM84.8889 55.6426L58.0055 102.204C57.8892 102.17 57.7723 102.139 57.6548 102.11V78.3567C59.9202 77.7935 61.9613 76.3485 63.2143 74.1689C63.8109 73.1346 64.193 71.9907 64.3378 70.8055C64.4826 69.6203 64.3871 68.4181 64.057 67.2706L84.6348 55.3899C84.7177 55.4756 84.8024 55.56 84.8889 55.6423V55.6426ZM93.5241 57.7518L120.401 104.303C119.786 104.89 119.258 105.563 118.834 106.301C118.412 107.035 118.096 107.825 117.896 108.648H64.1788C63.9787 107.825 63.6626 107.035 63.24 106.301C62.8151 105.568 62.2884 104.899 61.6756 104.314L88.558 57.7539C89.3639 57.9859 90.1985 58.1033 91.0372 58.1024C91.9007 58.1024 92.735 57.9802 93.5241 57.7518ZM97.6192 125.272L118.069 113.465C118.008 113.272 117.953 113.077 117.905 112.881H64.1674C64.1389 112.997 64.108 113.111 64.075 113.225L84.625 125.091C85.4549 124.228 86.4508 123.542 87.5528 123.074C88.6548 122.606 89.84 122.366 91.0372 122.368C92.2763 122.366 93.5021 122.623 94.6357 123.123C95.7693 123.623 96.7856 124.355 97.6192 125.272Z" fill="#E535AB"/>
</svg>
