<svg width="181" height="182" viewBox="0 0 181 182" fill="none" xmlns="http://www.w3.org/2000/svg">
<path d="M130.537 90.0179C130.537 84.8775 126.37 80.7101 121.229 80.7101C120.898 80.7101 120.572 80.7278 120.251 80.7618L133.035 43.0555H78.7057L91.4724 80.7288C91.284 80.717 91.0953 80.7108 90.9065 80.7104C85.7661 80.7104 81.5986 84.8772 81.5986 90.0183C81.5986 94.1734 84.3219 97.6913 88.0801 98.8882C86.0953 102.327 83.5973 105.424 80.7614 108.099C76.905 111.737 72.4917 114.496 67.7183 116.195C62.0351 113.276 59.3515 106.783 61.7729 101.09C62.0464 100.447 62.3256 99.7956 62.5924 99.1469C66.7096 98.186 69.778 94.4951 69.778 90.0849C69.778 84.9441 65.6105 80.777 60.4697 80.777C55.329 80.777 51.1618 84.9441 51.1618 90.0849C51.1618 93.2372 52.73 96.0218 55.1277 97.7055C52.8239 102.951 49.4374 108.441 48.3822 114.803C47.1177 122.428 48.378 130.522 54.9729 135.093C70.3318 145.738 87.0037 128.494 104.582 124.159C110.953 122.588 117.946 122.841 123.559 119.591C127.773 117.149 130.552 113.103 131.341 108.561C132.12 104.074 130.984 99.6068 128.372 95.9843C129.774 94.3122 130.54 92.1995 130.537 90.0179Z" fill="#99425B"/>
<path d="M129.101 108.172C128.417 112.116 125.981 115.56 122.419 117.623C119.099 119.546 115.12 120.12 110.908 120.728C108.651 121.053 106.317 121.39 104.038 121.952C98.0102 123.438 92.1718 126.338 86.5261 129.143C75.227 134.755 65.4691 139.601 56.2682 133.224C49.5284 128.553 49.8395 119.911 50.6247 115.175C51.3525 110.787 53.32 106.746 55.2223 102.839C55.5464 102.174 55.8679 101.509 56.1867 100.842C57.1457 101.226 58.1519 101.478 59.1782 101.593C57.2415 107.984 60.2872 114.934 66.6795 118.218L67.5546 118.667L68.4808 118.337C73.5344 116.537 78.1912 113.65 82.3214 109.753C84.9912 107.234 87.2868 104.447 89.1736 101.469C89.7472 101.556 90.3264 101.599 90.9065 101.599C96.7736 101.599 101.632 97.2134 102.384 91.5486C104.785 91.4607 107.336 91.46 109.752 91.5479C110.503 97.2134 115.362 101.6 121.229 101.6C123.682 101.6 125.958 100.831 127.832 99.525C129.134 102.189 129.619 105.187 129.101 108.172ZM60.4701 83.0503C64.3491 83.0503 67.5047 86.2062 67.5047 90.0853C67.5047 91.4785 67.0958 92.7777 66.3939 93.8719C65.2246 95.6955 63.2369 96.9455 60.9534 97.1014C60.7936 97.1121 60.6323 97.1199 60.4701 97.1199C59.6055 97.1199 58.7775 96.9622 58.0118 96.6759C56.4698 96.0961 55.1785 94.9962 54.3606 93.5661C53.7533 92.5066 53.4342 91.3065 53.4351 90.0853C53.4351 86.2062 56.591 83.0503 60.4701 83.0503ZM83.8723 90.0183C83.8723 86.4939 86.4776 83.5676 89.8627 83.0617C90.2036 83.0103 90.5522 82.9837 90.9069 82.9837C93.1621 82.9837 95.17 84.052 96.4576 85.7074C96.7801 86.1201 97.0556 86.5675 97.2789 87.0414C97.7161 87.9728 97.9424 88.9893 97.9415 90.0183C97.9415 90.5806 97.8734 91.1273 97.7484 91.6517C97.0628 94.5217 94.6155 96.7156 91.6166 97.0175C91.3834 97.0409 91.1467 97.0529 90.9069 97.0529C89.5538 97.054 88.2294 96.6625 87.0944 95.9258C85.1577 94.6712 83.8723 92.4925 83.8723 90.0183ZM113.233 81.6529C111.702 83.1141 110.6 84.9664 110.047 87.0091C107.396 86.9114 104.741 86.9114 102.09 87.0091C101.495 84.801 100.261 82.853 98.6008 81.3734L105.88 66.6544L113.233 81.6529ZM81.8764 45.3295H129.864L118.53 78.7575C118.042 78.8742 117.563 79.0228 117.094 79.2021L105.898 56.3619L94.6697 79.0657C94.1802 78.8977 93.68 78.7629 93.1724 78.6621L81.8764 45.3295ZM128.263 90.0187C128.263 90.7238 128.158 91.4048 127.964 92.0478C127.505 93.5619 126.55 94.8776 125.253 95.7841C124.074 96.6113 122.669 97.0545 121.229 97.0533C117.981 97.0533 115.241 94.8399 114.435 91.8423C114.275 91.2477 114.194 90.6345 114.194 90.0187C114.194 89.0571 114.388 88.1401 114.739 87.3046C114.92 86.8771 115.143 86.4686 115.405 86.0851C116.671 84.2164 118.807 82.9841 121.229 82.9841C121.451 82.9841 121.67 82.9954 121.887 83.016C125.459 83.3487 128.264 86.3614 128.264 90.0187H128.263ZM132.81 90.0187C132.81 84.3645 128.736 79.6468 123.371 78.6391L136.206 40.7822H75.5349L88.3902 78.7156C83.2108 79.8682 79.3257 84.4967 79.3257 90.0183C79.3257 94.1645 81.5168 97.8062 84.8006 99.8527C83.2211 102.206 81.3481 104.421 79.2017 106.446C75.7974 109.657 72.0052 112.093 67.9167 113.695C63.7985 111.108 62.0578 106.23 63.8655 101.98L64.0072 101.647L64.2729 101.022C68.7961 99.4442 72.0512 95.1392 72.0512 90.0853C72.0512 83.6991 66.8559 78.5038 60.4701 78.5038C54.0842 78.5038 48.8882 83.6991 48.8882 90.0853C48.8882 93.3085 50.2133 96.2274 52.3456 98.3292C51.9479 99.1718 51.5442 100.012 51.1346 100.848C49.1848 104.852 46.9752 109.391 46.1394 114.431C44.4798 124.44 47.157 132.442 53.6782 136.961C57.6352 139.704 61.6538 140.782 65.6977 140.782C73.3119 140.782 81.0147 136.957 88.5485 133.214C93.9742 130.52 99.5848 127.733 105.127 126.366C107.189 125.858 109.31 125.552 111.557 125.228C116.012 124.585 120.618 123.921 124.698 121.558C129.428 118.818 132.665 114.223 133.581 108.95C134.367 104.424 133.421 99.8906 131.114 96.0456C132.226 94.2318 132.813 92.1455 132.81 90.0183V90.0187Z" fill="white"/>
</svg>
