<svg width="182" height="181" viewBox="0 0 182 181" fill="none" xmlns="http://www.w3.org/2000/svg">
<path d="M137.031 40.2971H88.8766C88.8766 46.0624 91.1668 51.5915 95.2435 55.6681C99.3201 59.7447 104.849 62.035 110.614 62.035H119.485V70.5998C119.493 82.5943 129.214 92.3161 141.209 92.3239V44.4746C141.209 42.1681 139.339 40.2971 137.031 40.2971Z" fill="#2684FF"/>
<path d="M113.205 64.2909H65.0501C65.0575 76.2854 74.7789 86.0072 86.7738 86.015H95.6445V94.6072C95.6598 106.602 105.388 116.317 117.382 116.317V68.4691C117.382 66.1618 115.512 64.2913 113.205 64.2913V64.2909Z" fill="url(#paint0_linear_301_8875)"/>
<path d="M89.3637 88.2711H41.2089C41.2089 100.277 50.9416 110.009 62.9468 110.009H71.8452V118.573C71.8531 130.557 81.5576 140.274 93.5416 140.297V92.4489C93.5416 90.1416 91.671 88.2711 89.3637 88.2711Z" fill="url(#paint1_linear_301_8875)"/>
<defs>
<linearGradient id="paint0_linear_301_8875" x1="116.352" y1="64.3747" x2="95.9922" y2="85.6193" gradientUnits="userSpaceOnUse">
<stop offset="0.18" stop-color="#0052CC"/>
<stop offset="1" stop-color="#2684FF"/>
</linearGradient>
<linearGradient id="paint1_linear_301_8875" x1="93.8896" y1="88.5078" x2="70.3384" y2="111.679" gradientUnits="userSpaceOnUse">
<stop offset="0.18" stop-color="#0052CC"/>
<stop offset="1" stop-color="#2684FF"/>
</linearGradient>
</defs>
</svg>
