<!-- Generator: Adobe Illustrator 19.0.0, SVG Export Plug-In  -->
<svg version="1.1"
	 xmlns="http://www.w3.org/2000/svg" xmlns:xlink="http://www.w3.org/1999/xlink" xmlns:a="http://ns.adobe.com/AdobeSVGViewerExtensions/3.0/"
	 x="0px" y="0px" width="715.3px" height="115.6px" viewBox="0 0 715.3 115.6" style="enable-background:new 0 0 715.3 115.6;"
	 xml:space="preserve">
<style type="text/css">
	.st0{fill:#FFFFFF;}
</style>
<defs>
</defs>
<g>
	<g>
		<g>
			<path class="st0" d="M511,72.5v27.9c0,6.1,2,11.2,11.2,11.2c7.8,0,11.6-3.3,11.6-12.3V72.5h4.7v26.4c0,10.9-5.7,16.7-16.7,16.7
				c-13.2,0-15.7-7.4-15.7-14.7V72.5C506.2,72.5,511,72.5,511,72.5z M618.1,71.9c11.5,0,18.8,7.7,18.8,21.3c0,14.2-9,22.3-19.9,22.3
				c-12.7,0-18.8-8.5-18.8-21.3C598.2,80,607.2,71.9,618.1,71.9z M704.9,71.9c2.5,0,5.3,0.3,7.6,0.8l-0.6,4.3
				c-2.3-0.7-4.9-1.1-7.4-1.1c-6.2,0-9.1,2.8-9.1,7.2c0,9.8,19.9,6.3,19.9,19.6c0,7.4-6,12.8-15.4,12.8c-3.4,0-6.6-0.5-9.2-1.3
				l0.7-4.7c2.7,1.1,5.7,1.7,8.8,1.7c5.4,0,10-2.2,10-8c0-10.1-19.8-6.2-19.8-19.6C690.5,77,695.6,71.9,704.9,71.9z M246.7,71.9
				c4,0,7.9,0.7,11.7,1.8l-1.1,4.4c-3.5-1.4-7.3-2.1-11.1-2.1c-8.9,0-16.9,5.8-16.9,17.9c0,11.2,6.7,17.5,16.6,17.5
				c3.1,0,5.7-0.4,8.2-1.3V93.6h4.9v19.6c-4.3,1.6-9.4,2.4-13.9,2.4c-12.6,0-21-7.8-21-21C224.2,81.7,232.7,71.9,246.7,71.9z
				 M450.5,71.9c11.5,0,18.8,7.7,18.8,21.3c0,14.2-9,22.3-19.9,22.3c-12.7,0-18.8-8.5-18.8-21.3C430.5,80,439.5,71.9,450.5,71.9z
				 M412.6,71.9c2.5,0,5.3,0.3,7.6,0.8l-0.6,4.3c-2.3-0.7-4.9-1.1-7.4-1.1c-6.2,0-9.1,2.8-9.1,7.2c0,9.8,19.9,6.3,19.9,19.6
				c0,7.4-6.1,12.8-15.4,12.8c-3.4,0-6.6-0.5-9.2-1.3l0.7-4.7c2.7,1.1,5.7,1.7,8.8,1.7c5.3,0,10-2.2,10-8c0-10.1-19.8-6.2-19.8-19.6
				C398.2,77,403.3,71.9,412.6,71.9z M177.5,72.3c13.8,0,21.9,6.6,21.9,21c0,14.6-9.9,21.9-23.8,21.9c-4.3,0-7.4-0.2-10.3-0.2V72.5
				C168.5,72.5,173.1,72.3,177.5,72.3z M575.9,72.5v4h-12.8V115h-4.8V76.6h-12.7v-4C545.7,72.5,575.9,72.5,575.9,72.5z M214.3,72.5
				V115h-4.8V72.5H214.3z M276.3,72.5V115h-4.9V72.5C271.4,72.5,276.3,72.5,276.3,72.5z M314.7,72.5v4H302V115h-4.8V76.6h-12.7v-4
				C284.5,72.5,314.7,72.5,314.7,72.5z M653.1,72.5l17.4,27.6c1.8,3,3.6,6.1,5.2,9.1c-0.2-5.7-0.4-17.3-0.4-25V72.5h4.7V115h-6.4
				l-17.7-28.2c-1.9-3-3.5-5.9-4.8-8.7c0.2,4.8,0.4,16.5,0.4,23.9v13h-4.7V72.5H653.1z M588.4,72.5V115h-4.8V72.5H588.4z
				 M333.8,72.5l15.8,42.5h-5.5l-3.7-10.5h-18.9l-3.8,10.5h-5l15.8-42.5H333.8L333.8,72.5z M483.9,72.5v38.4h15.7v4.1H479V72.5
				C479,72.5,483.9,72.5,483.9,72.5z M362.3,72.5v38.4H378v4.1h-20.6V72.5C357.4,72.5,362.3,72.5,362.3,72.5z M113.9,0.9v26.8h-6.2
				v6.8h13.7v47h-13.7v6.9h6.2v26.5H0V0.9H113.9z M617.5,76.1c-7.5,0-14.2,6.1-14.2,17.2c0,10.6,4.6,18,14.2,18
				c7.4,0,14.2-6,14.2-17.3C631.7,82.7,626.5,76.1,617.5,76.1z M449.8,76.1c-7.5,0-14.2,6.1-14.2,17.2c0,10.6,4.6,18,14.2,18
				c7.4,0,14.2-6,14.2-17.3C464.1,82.7,458.8,76.1,449.8,76.1z M177,76.2c-2.4,0-5.2,0.1-6.9,0.2v34.4c1.7,0.3,4.3,0.4,6.1,0.4
				c10.7,0,18.1-5.5,18.1-17.6C194.3,82.2,188.5,76.2,177,76.2z M331,77.9h-0.1c-0.5,1.8-1.1,3.7-1.8,5.7l-6.2,17.2h16.2l-6.2-17.1
				C332.2,81.5,331.5,79.7,331,77.9z M87.1,27.7H66.5v60.7h20.6v-6.9H73.4v-47h13.7V27.7z M58.3,29.1h-8v14.4
				c-1.4-0.2-2.7-0.2-4-0.2C36,43.2,29.8,50.5,29.8,61c0,8.9,3.8,14.7,11.4,14.7c4.8,0,8.3-2.5,9.9-5.9h0.1
				c-0.2,1.7-0.4,3.7-0.4,5.2h7.5V29.1z M101.7,43c-9,0-13.2,4.5-13.2,10c0,10.6,12.7,7.4,12.7,13c0,2-2,3.3-5,3.3
				c-2.3,0-4.8-0.4-6.7-1.3l-0.6,6.7c2,0.6,4.5,0.8,7,0.8c8.3,0,13.8-4.2,13.8-10.4c0-10.3-12.9-7.6-12.9-12.9
				c0-1.9,1.4-3.2,4.6-3.2c2,0,4,0.3,5.7,0.8l0.4-6.3C105.6,43.3,103.5,43,101.7,43z M46.1,49.5c1.4,0,2.8,0.2,4.2,0.5v8.8
				c0,5.3-2.5,10.3-6.7,10.3c-3.7,0-5.4-3-5.4-8.9C38.3,52.4,41.5,49.5,46.1,49.5z M230.2,0c12.5,0,21.3,7.5,21.3,23.5
				c0,15.5-10.2,24.8-22.9,24.8c-14.2,0-21.3-9.1-21.3-23.5C207.3,9.3,217.6,0,230.2,0z M356.5,0c2.6,0,5.8,0.4,8.5,0.9l-0.8,7.9
				c-2.6-0.8-5.3-1.3-8-1.3c-5.3,0-7.7,2.3-7.7,5.6c0,8.4,20,5.3,20,20.1c0,8.7-7.3,15.1-18.1,15.1c-4.2,0-7.7-0.4-10.8-1.2l1-8.6
				c3,1.2,6.4,2,10.2,2c4.2,0,7.8-1.7,7.8-6.1c0-8.9-19.7-4.8-19.7-20.2C338.8,5.7,345.2,0,356.5,0z M514.8,0.1
				c4.8,0,9.5,0.8,13.2,2l-1.8,8.2c-3.5-1.4-7.5-2.1-12-2.1c-9.1,0-15.7,5.8-15.7,16.3c0,9.9,5.4,15.7,14.9,15.7
				c2.2,0,4.1-0.3,6-0.8V23h9v22.3c-4.6,1.9-10.4,2.9-16,2.9c-14.8,0-23.6-8.7-23.6-23C488.8,10.5,498.8,0.1,514.8,0.1z M169.5,0.8
				l9.1,27.4c0.9,2.6,2,6.1,2.7,9h0.1c0.8-3,1.8-6.4,2.8-9.6l9.2-26.8h9.2l-16.3,46.7H176L159.7,0.8C159.7,0.8,169.5,0.8,169.5,0.8z
				 M305.6,0.8V22l15.2-21.2h10.9l-17.1,22.6l17.9,24.2h-11.8l-15-22.4v22.4h-9V0.8H305.6z M592,0.8l13,22.3c2.1,3.6,4,7.5,5.7,11
				c-0.4-4.7-0.5-13-0.5-18.8V0.8h8.7v46.7h-11.6l-13.7-23.6c-2-3.5-3.7-7-5-10c0.3,4,0.4,11.4,0.4,17v16.7h-8.7V0.8H592z
				 M384.6,0.8l6.4,25.8c0.8,3,1.3,6.2,1.7,9.5h0.1c0.5-3.1,1-6.2,1.8-9.2l7.1-26.1h9.6l7.2,26c0.7,2.6,1.5,5.8,1.9,9.1h0.1
				c0.5-3.3,1.1-6.2,1.7-8.9l6.4-26.1h9l-11.9,46.7h-11.1l-6.8-25.8c-0.8-3-1.3-6.3-1.8-9.6h-0.1c-0.3,3.3-0.9,6.3-1.7,9.4l-6.8,26
				h-10.5L374.9,0.8C374.9,0.8,384.6,0.8,384.6,0.8z M567.4,0.8v7.5H551v11.5h15.6v7.4H551v12.7h16.4v7.7H542V0.8H567.4z M466.5,0.8
				l16.7,46.7h-10l-3.3-9.6h-17.7l-3.3,9.6H440l16.3-46.7C456.3,0.8,466.5,0.8,466.5,0.8z M271.7,0.8v38.8h15.2v7.9h-24.2V0.8
				C262.7,0.8,271.7,0.8,271.7,0.8z M229.4,8.1c-6.5,0-12.4,5.1-12.4,15.7c0,9.9,3.9,16.3,12.3,16.3c6.1,0,12.6-4.7,12.6-15.9
				C241.8,13.8,237.4,8.1,229.4,8.1z M461.1,11.1L461.1,11.1c-0.6,2-1.2,4.2-1.9,6.5l-4.6,13.3h13.2L463,17.5
				C462.2,15.2,461.6,13.1,461.1,11.1z"/>
		</g>
	</g>
</g>
</svg>
