<svg width="181" height="180" viewBox="0 0 181 180" fill="none" xmlns="http://www.w3.org/2000/svg">
<path d="M100.354 104.717L75.8294 99.5924C75.7267 99.791 75.6124 99.9833 75.4872 100.169L97.8138 132.738L99.1607 131.392L102.959 107.772C102.317 107.5 101.747 107.083 101.295 106.553C100.843 106.022 100.521 105.394 100.354 104.717V104.717ZM91.4077 72.6576C90.4889 74.067 88.903 74.9998 87.0968 74.9998C86.8187 74.9998 86.5484 74.9717 86.2827 74.9295L75.0981 92.4296L104.98 79.5704C104.97 79.4501 104.944 79.3376 104.944 79.2142C104.944 78.9626 104.978 78.7189 105.019 78.4782L91.4077 72.658V72.6576ZM92.2201 69.4686L106.698 75.6591C107.16 75.2985 107.687 75.032 108.252 74.8748L110.631 60.0781L101.565 51.0123L91.3608 66.98C91.8609 67.7198 92.1573 68.5783 92.2201 69.469V69.4686ZM122.558 72.0045L113.472 62.9172L111.497 75.1857C111.997 75.4375 112.447 75.7797 112.823 76.1951L122.558 72.0045ZM100.789 101.486C101.144 100.84 101.655 100.293 102.275 99.8949C102.895 99.4964 103.604 99.2585 104.339 99.2029L106.948 82.9735C106.744 82.8376 106.561 82.6751 106.381 82.5079L76.3278 95.442C76.4044 95.7561 76.4575 96.0764 76.4825 96.4092L100.789 101.486ZM125.033 74.481L114.52 79.0044L140.458 90.0937L140.551 89.9999L125.033 74.481ZM106.247 107.82L103.088 127.462L121.433 109.117L108.219 106.358C107.712 107.021 107.029 107.528 106.247 107.82ZM70.5888 102.77C69.9248 102.77 69.2889 102.656 68.6936 102.454L62.5999 111.991L60.2452 109.638L66.017 100.606C65.8743 100.429 65.7413 100.244 65.6186 100.053L55.1625 104.555L52.684 102.076L64.1292 97.1498L43.4377 92.8311L40.6077 89.9999L41.503 89.1046L65.3639 94.0858C65.6383 93.5653 65.9897 93.0891 66.4061 92.6733L54.825 75.781L57.164 73.442L69.2635 91.0921C69.698 90.9912 70.1424 90.9393 70.5884 90.9374C71.0994 90.9374 71.5947 91.0093 72.0681 91.1312L83.3902 73.4154C82.4684 72.4592 81.9537 71.1827 81.9543 69.8546C81.9543 69.4483 82.0058 69.0546 82.0949 68.6764L67.9701 62.6375L70.4478 60.1594L83.8304 65.8827C84.509 65.3234 85.3201 64.9481 86.1857 64.793C87.0513 64.6378 87.9423 64.708 88.7729 64.9968L99.2118 48.6592L90.553 39.9999L40.553 89.9999L90.553 140L95.4732 135.08L72.9794 102.264C72.2266 102.598 71.4123 102.77 70.5888 102.77ZM110.131 83.6731L107.477 100.172C107.94 100.544 108.325 101.007 108.606 101.531C108.888 102.055 109.061 102.631 109.116 103.224L124.183 106.369L137.979 92.5722L113.076 81.9251C112.364 82.8737 111.305 83.5022 110.131 83.6735V83.6731Z" fill="#25C7B7"/>
</svg>
