<svg width="181" height="181" viewBox="0 0 181 181" fill="none" xmlns="http://www.w3.org/2000/svg">
<g clip-path="url(#clip0_301_8902)">
<path d="M106.477 80.0084H123.895V83.2234H116.986V100.137H113.53V83.2234H106.477V80.0084Z" fill="white"/>
<path d="M77.8304 80.0084V83.2234H63.8685V88.3953H75.0967V91.6102H63.8685V96.9219H77.8304V100.137H60.4137V83.2234H60.4122V80.0084H77.8304Z" fill="white"/>
<path d="M86.5279 80.0168H82.0066L98.201 100.145H102.736L94.6373 90.0879L102.723 80.0321L98.201 80.0391L92.3736 87.2766L86.5279 80.0168Z" fill="white"/>
<path d="M91.1675 94.3946L88.9033 91.5794L81.9937 100.161H86.5279L91.1675 94.3946Z" fill="white"/>
<path fill-rule="evenodd" clip-rule="evenodd" d="M60.5348 100.137L44.3186 80H40V100.128H43.4548V84.3024L56.1946 100.137H60.5348Z" fill="white"/>
<path d="M124.672 100.014C124.419 100.014 124.204 99.9262 124.023 99.7509C123.843 99.5756 123.754 99.3634 123.756 99.112C123.754 98.8674 123.843 98.6575 124.023 98.4822C124.204 98.3069 124.419 98.2192 124.672 98.2192C124.915 98.2192 125.128 98.3069 125.308 98.4822C125.491 98.6575 125.582 98.8674 125.585 99.112C125.582 99.278 125.54 99.4303 125.456 99.5663C125.369 99.7048 125.259 99.8132 125.121 99.8916C124.985 99.9724 124.836 100.014 124.672 100.014Z" fill="white"/>
<path d="M130.568 91.5344H132.099V97.4327C132.097 97.9747 131.98 98.4384 131.751 98.8282C131.519 99.2181 131.198 99.5156 130.786 99.7255C130.377 99.9331 129.897 100.039 129.351 100.039C128.852 100.039 128.406 99.9493 128.008 99.774C127.61 99.5987 127.294 99.3357 127.062 98.9897C126.828 98.6437 126.713 98.2123 126.713 97.6956H128.246C128.249 97.9217 128.3 98.1177 128.398 98.2815C128.497 98.4453 128.632 98.5698 128.806 98.6575C128.981 98.7452 129.183 98.789 129.41 98.789C129.656 98.789 129.866 98.7382 130.037 98.6344C130.208 98.5329 130.339 98.3807 130.43 98.1777C130.519 97.9771 130.566 97.7279 130.568 97.4327V91.5344Z" fill="white"/>
<path d="M138.399 93.8411C138.361 93.4835 138.198 93.2044 137.912 93.006C137.624 92.8054 137.252 92.7062 136.795 92.7062C136.475 92.7062 136.199 92.7546 135.969 92.8492C135.74 92.9461 135.562 93.0752 135.44 93.239C135.318 93.4028 135.257 93.5897 135.253 93.7996C135.253 93.9749 135.295 94.1271 135.377 94.254C135.459 94.3832 135.569 94.4916 135.711 94.5792C135.852 94.6692 136.009 94.743 136.18 94.803C136.353 94.863 136.526 94.9137 136.699 94.9552L137.498 95.1513C137.818 95.2251 138.13 95.3243 138.427 95.4512C138.724 95.5757 138.993 95.7349 139.23 95.9264C139.466 96.1178 139.654 96.3485 139.792 96.6184C139.93 96.8883 140 97.2043 140 97.5687C140 98.0601 139.874 98.4914 139.618 98.8651C139.363 99.2365 138.996 99.5271 138.514 99.7371C138.034 99.9447 137.453 100.051 136.77 100.051C136.109 100.051 135.534 99.9493 135.049 99.7463C134.562 99.5456 134.183 99.2503 133.909 98.8628C133.635 98.4753 133.488 98.0024 133.467 97.4465H134.984C135.005 97.7371 135.098 97.9793 135.257 98.1754C135.419 98.3692 135.63 98.5122 135.887 98.6091C136.147 98.7036 136.437 98.7521 136.758 98.7521C137.093 98.7521 137.388 98.7013 137.643 98.6021C137.895 98.5029 138.094 98.3646 138.237 98.1847C138.383 98.007 138.455 97.7971 138.457 97.5572C138.455 97.3381 138.389 97.1558 138.263 97.0128C138.134 96.8698 137.956 96.7499 137.729 96.653C137.5 96.5561 137.233 96.4684 136.929 96.3923L135.96 96.1478C135.26 95.9702 134.705 95.7003 134.3 95.3382C133.893 94.976 133.691 94.4962 133.691 93.8941C133.691 93.4005 133.827 92.9669 134.101 92.5955C134.372 92.2241 134.745 91.9357 135.215 91.7304C135.688 91.5228 136.222 91.4213 136.816 91.4213C137.42 91.4213 137.949 91.5228 138.406 91.7304C138.862 91.9357 139.221 92.2218 139.48 92.5862C139.74 92.9507 139.876 93.3682 139.883 93.8411H138.399Z" fill="white"/>
</g>
<defs>
<clipPath id="clip0_301_8902">
<rect width="100" height="20.3046" fill="white" transform="translate(40 80)"/>
</clipPath>
</defs>
</svg>
