<svg width="181" height="181" viewBox="0 0 181 181" fill="none" xmlns="http://www.w3.org/2000/svg">
<path d="M86.7341 41.364C89.2136 39.9447 92.4432 39.9383 94.9206 41.364C107.384 48.4066 119.852 55.4381 132.313 62.485C134.657 63.8052 136.225 66.4137 136.201 69.1144V111.485C136.218 114.298 134.496 116.969 132.023 118.259C119.6 125.263 107.184 132.275 94.7635 139.279C92.2327 140.726 88.9383 140.614 86.4865 139.049C82.7622 136.89 79.0315 134.741 75.3069 132.585C74.5458 132.131 73.6878 131.77 73.1504 131.032C73.6255 130.391 74.4749 130.312 75.1651 130.032C76.7197 129.538 78.1476 128.744 79.5757 127.974C79.9369 127.727 80.3778 127.822 80.724 128.043C83.9087 129.869 87.0653 131.748 90.2607 133.556C90.9424 133.95 91.6326 133.428 92.2153 133.103C104.406 126.213 116.611 119.349 128.799 112.457C129.251 112.24 129.501 111.761 129.464 111.266C129.472 97.2886 129.466 83.3089 129.468 69.3316C129.52 68.7703 129.195 68.2543 128.688 68.0246C116.308 61.0529 103.935 54.0705 91.5575 47.097C91.343 46.9496 91.089 46.8704 90.8287 46.8701C90.5685 46.8697 90.3142 46.948 90.0994 47.0948C77.722 54.0705 65.351 61.0593 52.9736 68.0306C52.4678 68.2607 52.1284 68.7682 52.1886 69.3316C52.1907 83.3089 52.1886 97.2886 52.1886 111.268C52.1671 111.509 52.2201 111.752 52.3405 111.962C52.4609 112.172 52.6428 112.341 52.8617 112.444C56.1647 114.317 59.4719 116.177 62.777 118.044C64.639 119.046 66.9252 119.642 68.9766 118.874C70.7869 118.224 72.0559 116.377 72.0214 114.455C72.0385 100.559 72.0128 86.6614 72.0342 72.7678C71.989 72.151 72.5741 71.6413 73.1739 71.6994C74.7609 71.6887 76.3501 71.678 77.9371 71.7036C78.5995 71.6887 79.0554 72.3529 78.9735 72.9744C78.9671 86.958 78.9906 100.942 78.9628 114.926C78.9671 118.652 77.436 122.708 73.9888 124.531C69.742 126.731 64.493 126.265 60.2975 124.155C56.6654 122.342 53.1994 120.203 49.6318 118.261C47.1526 116.978 45.4384 114.296 45.4559 111.486V69.1144C45.4299 66.3578 47.06 63.7019 49.4768 62.4009C61.8973 55.3914 74.3157 48.3766 86.7341 41.364Z" fill="#8CC84B"/>
<path d="M97.5697 70.7145C102.987 70.3659 108.786 70.508 113.661 73.1766C117.435 75.2216 119.527 79.5137 119.594 83.7067C119.488 84.2722 118.897 84.5842 118.357 84.5454C116.786 84.5433 115.214 84.5668 113.642 84.5347C112.975 84.5603 112.588 83.9456 112.504 83.3562C112.052 81.35 110.958 79.363 109.07 78.3953C106.171 76.944 102.81 77.017 99.6492 77.0473C97.3417 77.1698 94.8604 77.3696 92.9055 78.7266C91.4046 79.7544 90.9488 81.8294 91.4844 83.5004C91.9895 84.7003 93.3745 85.0875 94.5078 85.4443C101.036 87.1517 107.954 86.9818 114.358 89.2288C117.009 90.1448 119.602 91.9256 120.51 94.7015C121.697 98.4218 121.177 102.869 118.53 105.855C116.383 108.313 113.257 109.651 110.139 110.378C105.991 111.302 101.686 111.326 97.4731 110.915C93.512 110.464 89.3899 109.423 86.332 106.724C83.7171 104.454 82.4399 100.916 82.5667 97.5015C82.597 96.9249 83.1711 96.5228 83.7235 96.5702C85.3062 96.5574 86.889 96.5531 88.4717 96.5723C89.1039 96.5271 89.5726 97.0734 89.605 97.6693C89.8971 99.5808 90.6154 101.587 92.2822 102.72C95.499 104.796 99.5353 104.653 103.219 104.712C106.27 104.576 109.696 104.535 112.186 102.518C113.5 101.368 113.889 99.4433 113.534 97.7875C113.149 96.3896 111.687 95.7382 110.431 95.3123C103.986 93.2736 96.9913 94.0134 90.609 91.708C88.018 90.7923 85.5124 89.0611 84.517 86.3992C83.128 82.6318 83.7644 77.9719 86.6888 75.086C89.5402 72.2154 93.6562 71.1099 97.5697 70.7142V70.7145Z" fill="#8CC84B"/>
</svg>
