<svg width="181" height="181" viewBox="0 0 181 181" fill="none" xmlns="http://www.w3.org/2000/svg">
<path d="M97.1008 123.667H134.275C135.456 123.667 136.616 123.359 137.638 122.774C138.661 122.188 139.51 121.347 140.1 120.333C140.69 119.32 141 118.17 141 117C140.999 115.83 140.688 114.68 140.097 113.667L115.132 70.8098C114.542 69.7965 113.693 68.955 112.671 68.3699C111.648 67.7848 110.489 67.4768 109.308 67.4768C108.128 67.4768 106.968 67.7848 105.946 68.3699C104.923 68.955 104.075 69.7965 103.484 70.8098L97.1008 81.7755L84.6202 60.3325C84.0295 59.3193 83.1803 58.4779 82.1577 57.8929C81.1352 57.3079 79.9753 57 78.7945 57C77.6138 57 76.454 57.3079 75.4313 57.8929C74.4088 58.4779 73.5595 59.3193 72.969 60.3325L41.903 113.667C41.312 114.68 41.0005 115.83 41 117C40.9995 118.17 41.3099 119.32 41.9 120.333C42.4901 121.347 43.3392 122.188 44.3617 122.774C45.3842 123.359 46.5442 123.667 47.7249 123.667H71.0598C80.3053 123.667 87.1235 119.642 91.8152 111.789L103.205 92.2383L109.306 81.7755L127.616 113.204H103.205L97.1008 123.667ZM70.6793 113.193L54.3946 113.189L78.8055 71.2874L90.9855 92.2383L82.8305 106.242C79.7148 111.337 76.1752 113.193 70.6793 113.193Z" fill="#00DC82"/>
</svg>
