<svg width="181" height="182" viewBox="0 0 181 182" fill="none" xmlns="http://www.w3.org/2000/svg">
<path d="M138.593 100.793C138.011 99.0276 136.488 97.7978 134.519 97.5027C133.59 97.3637 132.527 97.423 131.268 97.6831C129.074 98.137 127.447 98.3098 126.259 98.3432C130.742 90.753 134.388 82.0974 136.487 73.9496C139.88 60.7748 138.067 54.7729 135.948 52.0581C130.339 44.8723 122.157 41.0121 112.286 40.894C107.021 40.8294 102.398 41.872 99.9865 42.6217C97.7412 42.2244 95.3271 42.0026 92.794 41.9616C88.0456 41.8856 83.8502 42.9236 80.2654 45.0569C78.2807 44.3839 75.0954 43.4352 71.417 42.8298C62.7656 41.4056 55.7928 42.5153 50.6926 46.1283C44.5167 50.5028 41.6537 58.1033 42.1832 68.7187C42.3514 72.089 44.2315 82.3435 47.1918 92.0686C48.8932 97.6584 50.7074 102.3 52.5841 105.867C55.2456 110.924 58.0934 113.902 61.2904 114.971C63.0823 115.57 66.338 115.989 69.7623 113.129C70.1963 113.656 70.7754 114.18 71.5439 114.667C72.5199 115.284 73.7134 115.788 74.9053 116.087C79.2007 117.164 83.2242 116.894 86.6568 115.385C86.678 115.997 86.6943 116.582 86.7079 117.087C86.7306 117.907 86.7534 118.71 86.7833 119.461C86.9867 124.54 87.3313 128.49 88.3524 131.253C88.4085 131.405 88.4839 131.637 88.5634 131.883C89.0728 133.447 89.9246 136.065 92.0918 138.116C94.3359 140.24 97.0504 140.891 99.5365 140.891C100.783 140.891 101.973 140.727 103.016 140.503C106.736 139.703 110.96 138.486 114.016 134.123C116.905 129.998 118.309 123.786 118.563 113.997C118.596 113.72 118.627 113.456 118.656 113.204L118.716 112.687L119.397 112.747L119.572 112.759C123.361 112.932 127.993 112.126 130.838 110.801C133.085 109.755 140.289 105.942 138.593 100.793Z" fill="black"/>
<path d="M132.116 101.795C120.852 104.125 120.077 100.3 120.077 100.3C131.97 82.6045 136.942 60.1421 132.651 54.6445C120.947 39.6482 100.685 46.7406 100.347 46.9244L100.238 46.9442C98.0129 46.4808 95.5226 46.2051 92.7233 46.1591C87.6268 46.0756 83.7605 47.499 80.8267 49.73C80.8267 49.73 44.6826 34.7986 46.3639 68.5087C46.7214 75.68 56.6144 122.771 68.414 108.548C72.7268 103.346 76.8942 98.9487 76.8942 98.9487C78.9637 100.327 81.4414 101.031 84.0389 100.778L84.2408 100.606C84.1779 101.252 84.2067 101.884 84.3215 102.632C81.2816 106.037 82.1751 106.635 76.0984 107.889C69.9494 109.16 73.5616 111.422 75.92 112.014C78.7792 112.731 85.3937 113.746 89.8629 107.472L89.6849 108.188C90.8757 109.145 91.712 114.411 91.5719 119.184C91.4317 123.958 91.3382 127.235 92.2763 129.795C93.2153 132.355 94.1504 138.114 102.139 136.398C108.814 134.963 112.273 131.246 112.754 125.046C113.095 120.638 113.868 121.29 113.917 117.348L114.537 115.483C115.252 109.507 114.651 107.58 118.763 108.476L119.763 108.564C122.789 108.702 126.751 108.076 129.076 106.992C134.082 104.663 137.051 100.772 132.115 101.795H132.116Z" fill="#336791"/>
<path d="M82.9424 71.7157C81.9274 71.574 81.0082 71.7051 80.543 72.0583C80.2817 72.2569 80.2007 72.4871 80.1787 72.6454C80.1204 73.0651 80.4135 73.5292 80.5938 73.7685C81.1036 74.446 81.8482 74.9117 82.5853 75.0142C82.6921 75.0294 82.7985 75.0362 82.9042 75.0362C84.1332 75.0362 85.2509 74.0765 85.3494 73.3682C85.4725 72.481 84.1881 71.8896 82.9424 71.7161V71.7157ZM116.569 71.7438C116.472 71.0484 115.238 70.8501 114.067 71.0134C112.898 71.1768 111.764 71.7062 111.858 72.4031C111.934 72.9451 112.91 73.8703 114.065 73.8703C114.163 73.8703 114.262 73.8638 114.361 73.8498C115.132 73.7427 115.698 73.2516 115.967 72.9686C116.376 72.5372 116.613 72.0564 116.569 71.7438Z" fill="white"/>
<path d="M135.864 101.53C135.434 100.228 134.052 99.8086 131.755 100.284C124.936 101.695 122.493 100.718 121.692 100.126C126.992 92.0284 131.353 82.2403 133.705 73.108C134.82 68.7822 135.435 64.7647 135.485 61.49C135.541 57.896 134.931 55.2549 133.672 53.6415C128.596 47.1375 121.146 43.6486 112.127 43.5529C105.928 43.4831 100.69 45.074 99.6742 45.5214C97.5357 44.9882 95.2045 44.6608 92.6665 44.619C88.0124 44.5435 83.9893 45.6608 80.6586 47.9385C79.2118 47.3984 75.4728 46.1113 70.9001 45.3725C62.9948 44.0964 56.7129 45.0634 52.23 48.248C46.8809 52.0483 44.4114 58.8413 44.8898 68.4381C45.0508 71.6667 46.8854 81.5992 49.7806 91.1112C53.5916 103.631 57.7344 110.718 62.093 112.176C62.6032 112.347 63.1914 112.466 63.8402 112.466C65.4302 112.466 67.3796 111.748 69.4078 109.302C71.8817 106.327 74.4407 103.423 77.0817 100.595C78.7952 101.517 80.6776 102.032 82.6027 102.084C82.6065 102.134 82.6115 102.185 82.616 102.235C82.2846 102.631 81.9601 103.033 81.6426 103.441C80.3086 105.139 80.031 105.493 75.7371 106.379C74.5157 106.632 71.2717 107.302 71.2239 109.583C71.1724 112.074 75.0588 113.121 75.5015 113.231C77.0446 113.619 78.5312 113.81 79.9488 113.81C83.3966 113.81 86.4308 112.673 88.8555 110.475C88.7809 119.357 89.1502 128.109 90.2137 130.775C91.0849 132.959 93.2127 138.294 99.934 138.293C100.92 138.293 102.006 138.178 103.2 137.921C110.215 136.414 113.261 133.304 114.439 126.45C115.07 122.787 116.152 114.04 116.661 109.348C117.735 109.684 119.118 109.838 120.613 109.838C123.731 109.838 127.329 109.173 129.585 108.123C132.119 106.943 136.693 104.046 135.864 101.53ZM119.159 69.8243C119.135 71.2094 118.945 72.4669 118.744 73.7795C118.527 75.1912 118.303 76.6508 118.246 78.4226C118.191 80.1468 118.405 81.9395 118.613 83.6733C119.032 87.175 119.463 90.78 117.796 94.3372C117.519 93.8453 117.273 93.3368 117.058 92.8146C116.85 92.311 116.401 91.502 115.777 90.3824C113.354 86.0238 107.678 75.8171 110.584 71.6523C111.449 70.4126 113.646 69.138 119.159 69.8243ZM112.476 46.3577C120.556 46.5366 126.948 49.5678 131.473 55.3666C134.944 59.8144 131.122 80.0527 120.058 97.5123C119.946 97.3705 119.835 97.2291 119.722 97.0881L119.582 96.9126C122.441 92.1777 121.882 87.4929 121.385 83.3394C121.18 81.6349 120.987 80.0249 121.036 78.5126C121.087 76.9098 121.298 75.535 121.503 74.2057C121.754 72.5676 122.009 70.8726 121.939 68.8744C121.992 68.6648 122.013 68.4172 121.985 68.1232C121.805 66.2071 119.624 60.4726 115.177 55.2822C112.745 52.4432 109.198 49.2662 104.355 47.1234C106.438 46.6904 109.286 46.2867 112.476 46.3577ZM67.2615 107.513C65.0268 110.207 63.4838 109.691 62.9763 109.521C59.6698 108.415 55.833 101.407 52.4504 90.2943C49.5234 80.6786 47.813 71.0093 47.6774 68.2979C47.2502 59.7228 49.3231 53.7467 53.8389 50.5351C61.1882 45.3091 73.2711 48.4371 78.1263 50.0236C78.0566 50.0927 77.9839 50.1572 77.9149 50.2275C69.9476 58.2959 70.1365 72.0811 70.1562 72.9238C70.1555 73.249 70.1828 73.7093 70.2199 74.3424C70.357 76.6611 70.6123 80.9763 69.9305 85.8632C69.2972 90.4044 70.6933 94.8492 73.7601 98.0581C74.0748 98.3868 74.4056 98.6996 74.7512 98.9955C73.3862 100.461 70.4195 103.703 67.2615 107.513ZM75.7754 96.1215C73.3037 93.5351 72.181 89.9377 72.695 86.2506C73.4146 81.0884 73.1491 76.5923 73.0063 74.1768C72.9863 73.8388 72.9685 73.5425 72.9582 73.309C74.1221 72.274 79.5159 69.3762 83.3625 70.2599C85.1176 70.6629 86.1872 71.8616 86.6319 73.9231C88.9332 84.5966 86.9364 89.0451 85.332 92.6202C85.0014 93.3566 84.6889 94.0528 84.4223 94.7729L84.2155 95.3296C83.692 96.7372 83.205 98.046 82.9031 99.2887C80.2753 99.2811 77.7191 98.1553 75.7754 96.1211V96.1215ZM76.1788 110.516C75.4114 110.324 74.7213 109.99 74.3164 109.713C74.6547 109.553 75.2565 109.336 76.3003 109.12C81.3517 108.078 82.132 107.342 83.8356 105.173C84.2261 104.675 84.6688 104.112 85.282 103.425L85.2828 103.424C86.1959 102.399 86.6137 102.573 87.3712 102.888C87.9852 103.142 88.5832 103.914 88.8256 104.763C88.9404 105.165 89.0691 105.926 88.6476 106.518C85.0889 111.515 79.903 111.451 76.1788 110.516ZM102.615 135.184C96.4355 136.512 94.2474 133.35 92.8055 129.736C91.8749 127.402 91.4174 116.88 91.742 105.259C91.7462 105.104 91.7242 104.955 91.6818 104.815C91.6438 104.537 91.5861 104.263 91.5091 103.994C91.0265 102.303 89.8505 100.888 88.4397 100.302C87.8791 100.069 86.8504 99.6419 85.6142 99.959C85.8778 98.8697 86.3349 97.6396 86.8307 96.3076L87.0387 95.7474C87.2727 95.1158 87.5666 94.4614 87.8772 93.7687C89.5562 90.0284 91.8556 84.9053 89.36 73.3317C88.4253 68.9967 85.3036 66.8797 80.5715 67.3716C77.7347 67.6659 75.1391 68.8137 73.8445 69.4719C73.5661 69.6131 73.3116 69.7499 73.0738 69.8828C73.4351 65.5151 74.8001 57.3525 79.9064 52.188C83.1216 48.937 87.4034 47.3312 92.6203 47.4178C102.9 47.5864 109.491 52.8762 113.211 57.2845C116.417 61.0829 118.153 64.9094 118.846 66.9732C113.636 66.4418 110.093 67.473 108.297 70.048C104.389 75.6493 110.434 86.5206 113.34 91.7455C113.873 92.703 114.333 93.5305 114.477 93.8822C115.423 96.1815 116.648 97.7167 117.542 98.8371C117.817 99.1804 118.083 99.5135 118.285 99.8044C116.707 100.261 113.873 101.314 114.131 106.583C113.923 109.226 112.441 121.602 111.689 125.975C110.695 131.752 108.576 133.903 102.615 135.185V135.184ZM128.41 105.585C126.796 106.335 124.096 106.899 121.531 107.02C118.698 107.153 117.256 106.702 116.916 106.424C116.757 103.141 117.976 102.798 119.265 102.435C119.468 102.378 119.666 102.322 119.857 102.255C119.975 102.352 120.105 102.448 120.248 102.542C122.525 104.049 126.586 104.212 132.32 103.025L132.383 103.013C131.609 103.738 130.286 104.711 128.41 105.585Z" fill="white"/>
</svg>
