<svg width="181" height="181" viewBox="0 0 181 181" fill="none" xmlns="http://www.w3.org/2000/svg">
<path fill-rule="evenodd" clip-rule="evenodd" d="M50.7739 108.639C49.7565 107.035 49.7412 104.991 50.7342 103.371L88.1259 42.3772C90.2057 38.9848 95.2275 39.2814 96.8935 42.8951L131.053 116.994C132.32 119.744 130.861 122.978 127.961 123.849L74.824 139.79C72.686 140.431 70.3825 139.571 69.1874 137.686L50.7739 108.639ZM92.4401 60.2112C92.8004 58.4169 95.2589 58.1582 95.985 59.8381L119.547 114.36C119.991 115.387 119.439 116.571 118.367 116.891L81.6538 127.85C80.3043 128.253 79.0116 127.074 79.2889 125.693L92.4401 60.2112Z" fill="white"/>
</svg>
