<svg width="182" height="181" viewBox="0 0 182 181" fill="none" xmlns="http://www.w3.org/2000/svg">
<path d="M91.1045 99.4105C95.9736 99.4105 99.9207 95.4634 99.9207 90.5943C99.9207 85.7252 95.9736 81.7781 91.1045 81.7781C86.2354 81.7781 82.2883 85.7252 82.2883 90.5943C82.2883 95.4634 86.2354 99.4105 91.1045 99.4105Z" fill="#61DAFB"/>
<path d="M91.1045 108.657C117.231 108.657 138.411 100.57 138.411 90.5943C138.411 80.6186 117.231 72.5317 91.1045 72.5317C64.9777 72.5317 43.7979 80.6186 43.7979 90.5943C43.7979 100.57 64.9777 108.657 91.1045 108.657Z" stroke="#61DAFB" stroke-width="5"/>
<path d="M75.4618 99.6255C88.5251 122.252 106.119 136.551 114.758 131.563C123.397 126.575 119.81 104.189 106.747 81.563C93.6836 58.9366 76.0903 44.6377 67.4511 49.6255C58.8119 54.6133 62.3984 76.9991 75.4618 99.6255Z" stroke="#61DAFB" stroke-width="5"/>
<path d="M75.4619 81.5629C62.3985 104.189 58.812 126.575 67.4512 131.563C76.0903 136.551 93.6837 122.252 106.747 99.6255C119.81 76.9991 123.397 54.6133 114.758 49.6255C106.119 44.6376 88.5252 58.9365 75.4619 81.5629Z" stroke="#61DAFB" stroke-width="5"/>
</svg>
