<svg width="182" height="182" viewBox="0 0 182 182" fill="none" xmlns="http://www.w3.org/2000/svg">
<path fill-rule="evenodd" clip-rule="evenodd" d="M61.8466 77.9873L91.5915 135.878L41.5957 77.9873H61.8466Z" fill="#EA6C00"/>
<path fill-rule="evenodd" clip-rule="evenodd" d="M121.345 77.9873L91.5999 135.878L141.596 77.9873H121.345Z" fill="#EA6C00"/>
<path fill-rule="evenodd" clip-rule="evenodd" d="M61.8455 77.9873H121.335L91.5903 135.878L61.8455 77.9873Z" fill="#FDAD00"/>
<path fill-rule="evenodd" clip-rule="evenodd" d="M91.5903 45.9043L63.411 48.8662L61.8455 77.9873L91.5903 45.9043Z" fill="#FDD231"/>
<path fill-rule="evenodd" clip-rule="evenodd" d="M91.5904 45.9043L119.77 48.8662L121.335 77.9873L91.5904 45.9043Z" fill="#FDD231"/>
<path fill-rule="evenodd" clip-rule="evenodd" d="M141.596 77.9874L119.779 48.8662L121.345 77.9874H141.596Z" fill="#FDAD00"/>
<path fill-rule="evenodd" clip-rule="evenodd" d="M41.5957 77.9874L63.4121 48.8662L61.8466 77.9874H41.5957Z" fill="#FDAD00"/>
<path fill-rule="evenodd" clip-rule="evenodd" d="M91.5903 45.9043L61.8455 77.9873H121.335L91.5903 45.9043Z" fill="#FEEEB7"/>
</svg>
