<svg width="181" height="181" viewBox="0 0 181 181" fill="none" xmlns="http://www.w3.org/2000/svg">
<path d="M54.1032 132.15L51.0032 49.6002C50.9564 48.2891 51.4237 47.0116 52.3055 46.0401C53.1873 45.0687 54.4137 44.4802 55.7232 44.4002L125.923 40.0102C126.609 39.9664 127.296 40.0638 127.943 40.2964C128.59 40.5289 129.182 40.8917 129.683 41.3622C130.184 41.8327 130.583 42.401 130.856 43.0319C131.128 43.6628 131.269 44.3429 131.268 45.0302V134.975C131.267 135.654 131.129 136.326 130.862 136.95C130.595 137.574 130.204 138.138 129.713 138.607C129.221 139.076 128.641 139.441 128.005 139.68C127.369 139.918 126.691 140.025 126.013 139.995L58.9032 136.98C57.6424 136.923 56.4491 136.395 55.56 135.499C54.6708 134.603 54.1508 133.411 54.1032 132.15Z" fill="#FF4785"/>
<path fill-rule="evenodd" clip-rule="evenodd" d="M120.404 40.3552L110.744 40.9552L110.274 52.2902C110.268 52.432 110.302 52.5726 110.373 52.6955C110.444 52.8184 110.549 52.9187 110.674 52.9847C110.8 53.0507 110.942 53.0796 111.083 53.0682C111.225 53.0568 111.36 53.0055 111.474 52.9202L115.874 49.5802L119.594 52.5102C119.706 52.5991 119.841 52.654 119.984 52.6683C120.126 52.6827 120.27 52.656 120.398 52.5913C120.526 52.5266 120.632 52.4267 120.705 52.3033C120.778 52.18 120.814 52.0383 120.809 51.8952L120.404 40.3552ZM112.884 78.3051C111.119 79.6801 97.9386 80.6151 97.9386 78.6601C98.2186 71.1952 94.8786 70.8701 93.0186 70.8701C91.2586 70.8701 88.2886 71.4002 88.2886 75.4001C88.2886 79.4751 92.6286 81.7751 97.7236 84.4751C104.959 88.3101 113.724 92.9551 113.724 104.635C113.724 115.835 104.624 122.015 93.0236 122.015C81.0486 122.015 70.5837 117.17 71.7636 100.375C72.2286 98.4051 87.4536 98.8751 87.4536 100.375C87.2636 107.305 88.8436 109.345 92.8336 109.345C95.8986 109.345 97.2886 107.655 97.2886 104.815C97.2886 100.51 92.7686 97.9701 87.5636 95.0501C80.5186 91.0951 72.2286 86.4401 72.2286 75.7551C72.2286 65.0952 79.5586 57.9852 92.6486 57.9852C105.739 57.9852 112.884 64.9852 112.884 78.3051Z" fill="white"/>
</svg>
