<svg width="181" height="181" viewBox="0 0 181 181" fill="none" xmlns="http://www.w3.org/2000/svg">
<path d="M90.8284 60.4933C77.4946 60.4933 69.1615 67.1582 65.8277 80.487C70.8284 73.822 76.6618 71.3235 83.3281 72.9892C87.132 73.9395 89.8505 76.6993 92.8604 79.7529C97.7622 84.7273 103.436 90.4845 115.829 90.4845C129.161 90.4845 137.496 83.8195 140.828 70.4895C135.829 77.1545 129.996 79.6542 123.328 77.9885C119.525 77.0382 116.807 74.2784 113.797 71.2248C108.895 66.2504 103.221 60.4933 90.8284 60.4933ZM65.8277 90.4845C52.4952 90.4845 44.1609 97.1494 40.8284 110.479C45.8277 103.814 51.6612 101.315 58.3287 102.982C62.1314 103.933 64.8499 106.692 67.8598 109.744C72.7616 114.718 78.4362 120.477 90.8284 120.477C104.162 120.477 112.495 113.812 115.829 100.482C110.828 107.147 104.995 109.647 98.3287 107.98C94.5248 107.031 91.8062 104.27 88.7964 101.217C83.8945 96.2429 78.2211 90.4845 65.8277 90.4845Z" fill="#06B6D4"/>
</svg>
