<svg width="181" height="181" viewBox="0 0 181 181" fill="none" xmlns="http://www.w3.org/2000/svg">
<path d="M116.045 72.0468L92.1384 106.612C91.885 106.979 91.5184 107.253 91.0944 107.394C90.6704 107.535 90.212 107.534 89.7888 107.392C89.3656 107.25 89.0008 106.974 88.7495 106.607C88.4983 106.239 88.3744 105.8 88.3968 105.356L89.3536 86.2723L73.9074 82.9965C73.5773 82.9266 73.2698 82.7767 73.012 82.56C72.7542 82.3434 72.5541 82.0668 72.4294 81.7546C72.3048 81.4424 72.2595 81.1044 72.2975 80.7704C72.3354 80.4364 72.4555 80.1168 72.6471 79.8398L96.5538 45.2741C96.8073 44.9074 97.1739 44.633 97.5979 44.4923C98.0221 44.3515 98.4804 44.3523 98.9037 44.4944C99.3269 44.6365 99.6918 44.9123 99.9429 45.2798C100.194 45.6473 100.318 46.0865 100.296 46.5308L99.3388 65.6148L114.785 68.8903C115.115 68.9602 115.422 69.1102 115.68 69.3268C115.938 69.5434 116.138 69.8201 116.263 70.1322C116.388 70.4444 116.433 70.7825 116.395 71.1164C116.357 71.4504 116.237 71.7698 116.045 72.0468Z" fill="#FCC72B"/>
<path d="M91.0096 135.613C90.3738 135.613 89.744 135.489 89.1566 135.246C88.5692 135.002 88.0356 134.645 87.5866 134.195L64.9976 111.608C64.0939 110.699 63.5874 109.47 63.5891 108.188C63.5908 106.907 64.1006 105.678 65.0067 104.772C65.9128 103.866 67.1414 103.356 68.4228 103.354C69.7043 103.352 70.9343 103.858 71.8429 104.762L91.0096 123.927L132.765 82.1738C133.675 81.2782 134.902 80.7786 136.179 80.7839C137.456 80.789 138.679 81.2986 139.582 82.2015C140.485 83.1045 140.995 84.3276 141 85.6046C141.005 86.8815 140.505 88.1088 139.609 89.019L94.4318 134.195C93.9829 134.646 93.4494 135.002 92.8621 135.246C92.2749 135.489 91.6453 135.613 91.0096 135.613Z" fill="#729B1B"/>
<path d="M90.9901 135.613C91.626 135.613 92.2557 135.489 92.8431 135.246C93.4306 135.002 93.9641 134.645 94.4132 134.195L117.002 111.608C117.906 110.699 118.413 109.47 118.411 108.188C118.409 106.907 117.899 105.678 116.993 104.772C116.087 103.866 114.858 103.356 113.577 103.354C112.295 103.352 111.066 103.858 110.157 104.762L90.9901 123.927L49.2352 82.1738C48.325 81.2782 47.0977 80.7786 45.8208 80.7839C44.5438 80.789 43.3207 81.2986 42.4177 82.2015C41.5148 83.1045 41.0052 84.3276 41 85.6046C40.9948 86.8815 41.4944 88.1088 42.39 89.019L87.5679 134.195C88.0168 134.646 88.5503 135.002 89.1376 135.246C89.7249 135.489 90.3544 135.613 90.9901 135.613Z" fill="#729B1B" fill-opacity="0.5"/>
</svg>
