<svg width="181" height="182" viewBox="0 0 181 182" fill="none" xmlns="http://www.w3.org/2000/svg">
<path d="M139.762 55.6921L93.6448 139.586C92.6926 141.318 90.2464 141.328 89.28 139.605L42.249 55.6999C41.1959 53.8218 42.7748 51.5465 44.8671 51.9273L91.0333 60.3218C91.3278 60.3754 91.6294 60.3749 91.9237 60.3203L137.124 51.939C139.21 51.5524 140.796 53.8101 139.762 55.6921Z" fill="url(#paint0_linear_301_8912)"/>
<path d="M113.024 40.9157L78.8971 47.7189C78.6244 47.7733 78.3772 47.9183 78.1943 48.1311C78.0115 48.344 77.9034 48.6126 77.8869 48.8948L75.7877 84.9651C75.7762 85.1629 75.8101 85.3608 75.8869 85.5429C75.9636 85.7251 76.081 85.8865 76.2298 86.0145C76.3786 86.1424 76.5546 86.2333 76.744 86.2799C76.9333 86.3265 77.1307 86.3276 77.3205 86.283L86.8222 84.0522C87.7111 83.8435 88.5146 84.6401 88.3316 85.5495L85.5088 99.6128C85.3189 100.559 86.1922 101.368 87.1006 101.087L92.9695 99.2737C93.8792 98.9928 94.7535 99.8043 94.561 100.752L90.075 122.841C89.7943 124.223 91.6009 124.977 92.354 123.792L92.8576 123.001L120.667 66.5406C121.133 65.5953 120.329 64.5174 119.309 64.7179L109.528 66.6381C108.609 66.8184 107.827 65.9476 108.087 65.0331L114.47 42.5204C114.73 41.6035 113.945 40.7324 113.025 40.9157H113.024Z" fill="url(#paint1_linear_301_8912)"/>
<defs>
<linearGradient id="paint0_linear_301_8912" x1="41.1007" y1="58.6959" x2="91.9511" y2="126.579" gradientUnits="userSpaceOnUse">
<stop stop-color="#41D1FF"/>
<stop offset="1" stop-color="#BD34FE"/>
</linearGradient>
<linearGradient id="paint1_linear_301_8912" x1="95.312" y1="42.7629" x2="105.894" y2="114.115" gradientUnits="userSpaceOnUse">
<stop stop-color="#FFEA83"/>
<stop offset="0.083" stop-color="#FFDD35"/>
<stop offset="1" stop-color="#FFA800"/>
</linearGradient>
</defs>
</svg>
