<svg width="181" height="181" viewBox="0 0 181 181" fill="none" xmlns="http://www.w3.org/2000/svg">
<path d="M41.6082 75.3304C41.6082 75.3304 39.1725 73.5747 42.0953 71.2304L48.9049 65.1414C48.9049 65.1414 50.8534 63.0914 52.9135 64.8775L115.753 112.453V135.267C115.753 135.267 115.722 138.85 111.125 138.454L41.6082 75.3304Z" fill="#2489CA"/>
<path d="M57.8051 90.0358L41.6081 104.761C41.6081 104.761 39.9438 105.999 41.6081 108.212L49.1281 115.052C49.1281 115.052 50.9143 116.97 53.5529 114.788L70.7241 101.767L57.8051 90.0358Z" fill="#1070B3"/>
<path d="M86.2411 90.1575L115.946 67.4756L115.753 44.7836C115.753 44.7836 114.484 39.8312 110.252 42.4089L70.7241 78.3852L86.2411 90.1575Z" fill="#0877B9"/>
<path d="M111.125 138.484C112.85 140.25 114.941 139.672 114.941 139.672L138.089 128.265C141.053 126.245 140.637 123.739 140.637 123.739V55.6221C140.637 52.6283 137.572 51.5932 137.572 51.5932L117.508 41.9217C113.124 39.2121 110.252 42.4088 110.252 42.4088C110.252 42.4088 113.946 39.7499 115.753 44.7836V134.851C115.753 135.47 115.621 136.079 115.357 136.627C114.829 137.693 113.682 138.687 110.932 138.271L111.125 138.484Z" fill="#3C99D4"/>
</svg>
